# xmcd CD database file
#
# Track frame offsets:
#	150
#	15987
#	28158
#	42054
#	58178
#	72831
#	87885
#	102097
#
# Disc length: 1542 seconds
#
# Revision: 0
# Processed by: cddbd v1.5.2PL0 Copyright (c) Steve Scherf et al.
# Submitted via: CDex 1.70beta2
#
DISCID=5b060408
DTITLE=Will Cox - Wanted Man
DYEAR=2008
DGENRE=Country
TTITLE0=I Cried
TTITLE1=Nothing But Tequila
TTITLE2=I'd Take Her Back
TTITLE3=Every Now and Then
TTITLE4=Final Dance
TTITLE5=It's Your Call
TTITLE6=I Need to Go
TTITLE7=Hear the Angels Crying
EXTD=YEAR: 2008
EXTT0=
EXTT1=
EXTT2=
EXTT3=
EXTT4=
EXTT5=
EXTT6=
EXTT7=
PLAYORDER=
